<svg width="720" height="589" viewBox="0 0 720 589" fill="none" xmlns="http://www.w3.org/2000/svg">
<path d="M591.382 169.814C628.146 169.814 657.95 140.01 657.95 103.246C657.95 66.4816 628.146 36.6782 591.382 36.6782C554.618 36.6782 524.814 66.4816 524.814 103.246C524.814 140.01 554.618 169.814 591.382 169.814Z" fill="#2F2E41"/>
<path d="M714.206 483.715C694.258 539.739 656.651 588.085 656.651 588.085H564.562L576.912 562.739L583.097 550.05L592.037 531.704L596.432 522.685L608.305 498.303L590.575 521.949L582.918 532.152L568.4 551.522L556.289 567.671C517.426 576.12 478.007 581.772 438.336 584.585C438.187 579.911 438.932 570.723 444.869 557.946C448.025 551.264 451.811 544.897 456.175 538.933C460.258 533.314 464.674 527.944 469.4 522.854C472.025 520.01 474.79 517.107 477.643 514.173C514.793 475.979 568.4 432.306 568.4 432.306L553.057 371.679L663.492 352.925C664.86 352.692 666.261 352.748 667.605 353.088C668.95 353.428 670.209 354.045 671.301 354.899C672.394 355.754 673.296 356.827 673.949 358.051C674.603 359.274 674.994 360.621 675.097 362.004C675.693 370.009 677.802 380.3 684.285 385.491C695.79 394.699 734.163 427.702 714.206 483.715Z" fill="#2F2E41"/>
<path d="M641.288 535.572C641.287 535.774 641.257 535.975 641.198 536.169C639.647 542.085 615.693 552.715 576.912 562.739C570.439 564.399 563.548 566.05 556.289 567.671C517.426 576.12 478.007 581.772 438.336 584.585C418.229 586.047 397.238 586.882 375.64 586.882C231.147 586.882 113.602 549.523 110.092 536.169C110.033 535.975 110.003 535.774 110.003 535.572C110.001 535.445 110.014 535.318 110.042 535.194C110.052 535.116 110.072 535.039 110.102 534.966C113.95 523.361 231.356 540.544 375.64 540.544C403.712 540.544 430.778 539.898 456.175 538.933C506.62 537.014 550.541 533.872 582.918 532.152C586.07 531.992 589.113 531.833 592.037 531.704C621.739 530.302 639.727 530.541 641.189 534.966C641.219 535.039 641.239 535.116 641.248 535.194C641.276 535.318 641.289 535.445 641.288 535.572Z" fill="#3F3D56"/>
<path opacity="0.1" d="M641.288 535.572C641.287 535.774 641.257 535.975 641.198 536.169C639.647 542.085 615.693 552.715 576.912 562.739C570.439 564.399 563.548 566.05 556.289 567.671C517.426 576.12 478.007 581.772 438.336 584.585C418.229 586.047 397.238 586.882 375.64 586.882C231.147 586.882 113.602 549.523 110.092 536.169C110.033 535.975 110.003 535.774 110.003 535.572C110.001 535.445 110.014 535.318 110.042 535.194C110.052 535.116 110.072 535.039 110.102 534.966C113.95 523.361 231.356 540.544 375.64 540.544C403.712 540.544 430.778 539.898 456.175 538.933C506.62 537.014 550.541 533.872 582.918 532.152C586.07 531.992 589.113 531.833 592.037 531.704C621.739 530.302 639.727 530.541 641.189 534.966C641.219 535.039 641.239 535.116 641.248 535.194C641.276 535.318 641.289 535.445 641.288 535.572Z" fill="black"/>
<path d="M375.645 558.746C522.356 558.746 641.29 548.371 641.29 535.574C641.29 522.777 522.356 512.403 375.645 512.403C228.933 512.403 110 522.777 110 535.574C110 548.371 228.933 558.746 375.645 558.746Z" fill="#3F3D56"/>
<path opacity="0.1" d="M532.921 548.728C557.634 548.728 577.668 544.276 577.668 538.784C577.668 533.292 557.634 528.84 532.921 528.84C508.208 528.84 488.174 533.292 488.174 538.784C488.174 544.276 508.208 548.728 532.921 548.728Z" fill="black"/>
<path d="M532.921 538.784C546.101 538.784 556.786 537.003 556.786 534.807C556.786 532.61 546.101 530.829 532.921 530.829C519.741 530.829 509.056 532.61 509.056 534.807C509.056 537.003 519.741 538.784 532.921 538.784Z" fill="#41B8AC"/>
<path d="M553.474 490.763C553.474 490.763 504.321 528.996 521.972 532.833C539.623 536.67 568.017 494.463 568.017 494.463L553.474 490.763Z" fill="#A0616A"/>
<path d="M579.528 171.381C603.686 171.381 623.271 151.797 623.271 127.638C623.271 103.48 603.686 83.8958 579.528 83.8958C555.37 83.8958 535.785 103.48 535.785 127.638C535.785 151.797 555.37 171.381 579.528 171.381Z" fill="#A0616A"/>
<path d="M579.528 166.777C579.528 166.777 594.876 205.915 582.598 212.821C570.319 219.728 564.18 220.496 564.18 220.496L551.134 242.751L543.46 265.773L604.853 268.075L647.828 199.775C647.828 199.775 627.108 189.032 616.364 142.987L579.528 166.777Z" fill="#A0616A"/>
<path d="M659.723 200.927C659.723 200.927 651.916 195.798 644.692 197.595C641.161 198.37 637.714 199.485 634.398 200.927C634.398 200.927 594.493 255.413 573.005 256.948C573.005 256.948 544.611 264.622 551.517 253.111C558.424 241.6 573.558 217.371 573.558 217.371C573.558 217.371 546.145 223.949 546.145 233.158C546.145 242.367 540.773 259.25 540.773 259.25C540.773 259.25 514.681 285.342 540.773 316.039C566.866 346.735 556.889 374.362 556.889 374.362L672.001 353.642L659.723 200.927Z" fill="#D0CDE1"/>
<path d="M538.471 297.621L531.565 403.524L538.471 501.753C538.471 501.753 566.866 507.892 573.772 501.753C580.679 495.614 559.192 336.759 559.192 336.759L538.471 297.621Z" fill="#D0CDE1"/>
<path d="M618.963 70.2586C634.176 70.2586 646.509 57.9262 646.509 42.7133C646.509 27.5004 634.176 15.168 618.963 15.168C603.75 15.168 591.418 27.5004 591.418 42.7133C591.418 57.9262 603.75 70.2586 618.963 70.2586Z" fill="#2F2E41"/>
<path d="M582.236 27.793C582.236 20.9843 584.758 14.417 589.315 9.35793C593.872 4.29886 600.141 1.10647 606.912 0.396603C605.959 0.297624 605.001 0.24792 604.043 0.247681C596.737 0.247681 589.731 3.14977 584.565 8.31552C579.4 13.4813 576.497 20.4875 576.497 27.793C576.497 35.0985 579.4 42.1047 584.565 47.2705C589.731 52.4362 596.737 55.3383 604.043 55.3383C605.001 55.3381 605.959 55.2884 606.912 55.1894C600.141 54.4795 593.872 51.2871 589.315 46.228C584.758 41.169 582.236 34.6017 582.236 27.793Z" fill="#2F2E41"/>
<path d="M628.453 114.81C632.36 100.108 615.663 82.91 591.158 76.3983C566.654 69.8867 543.622 76.5267 539.715 91.2293C535.808 105.932 552.506 123.129 577.01 129.641C601.514 136.153 624.546 129.513 628.453 114.81Z" fill="#2F2E41"/>
<path d="M574.962 496.902C574.962 496.902 525.809 535.136 543.46 538.973C561.11 542.81 589.504 500.602 589.504 500.602L574.962 496.902Z" fill="#A0616A"/>
<path d="M640.537 205.531C640.537 205.531 662.025 187.113 672.002 212.438C681.978 237.762 666.63 362.851 666.63 362.851L592.958 511.729C592.958 511.729 557.657 513.264 565.331 487.939C573.005 462.615 624.806 343.282 627.875 340.212C630.945 337.143 640.537 205.531 640.537 205.531Z" fill="#D0CDE1"/>
<path opacity="0.1" d="M543.082 318.864C543.082 318.864 560.016 354.775 558.645 364.377C557.273 373.979 543.082 318.864 543.082 318.864Z" fill="black"/>
<path d="M626.34 133.01C628.46 133.01 630.178 129.575 630.178 125.336C630.178 121.098 628.46 117.662 626.34 117.662C624.221 117.662 622.503 121.098 622.503 125.336C622.503 129.575 624.221 133.01 626.34 133.01Z" fill="#A0616A"/>
<path d="M523.865 484.833C488.595 518.602 370.42 520.034 181.958 487.104C178.102 486.429 174.274 485.672 170.472 484.833C76.6338 464.064 7.90515e-05 392.528 7.90515e-05 285.552C-0.0135573 269.37 1.73706 253.235 5.22093 237.432C5.71228 235.188 6.24006 232.958 6.80426 230.741C8.44214 224.336 10.3485 218.063 12.5233 211.922C39.071 137.024 104.922 84 181.958 84C201.094 84 216.184 89.0678 228.714 97.696H228.72C251.562 113.425 265.894 140.994 280.724 171.312C283.966 177.935 287.228 184.694 290.613 191.488C304.569 219.5 320.518 248.12 345.073 270.697C348.973 274.294 353.055 277.688 357.303 280.866C359.446 282.476 361.65 284.038 363.916 285.552C510.516 383.586 559.496 450.709 523.865 484.833Z" fill="#3F3D56"/>
<path opacity="0.1" d="M214.395 552.958C246.646 552.958 272.791 548.544 272.791 543.1C272.791 537.656 246.646 533.242 214.395 533.242C182.145 533.242 156 537.656 156 543.1C156 548.544 182.145 552.958 214.395 552.958Z" fill="black"/>
<path d="M222.178 513.04C212.534 525.653 213.636 542.7 213.636 542.7C213.636 542.7 230.376 539.296 240.02 526.683C249.665 514.07 248.562 497.023 248.562 497.023C248.562 497.023 231.822 500.427 222.178 513.04Z" fill="#D0CDE1"/>
<path d="M228.498 515.873C226.627 531.64 213.958 543.098 213.958 543.098C213.958 543.098 204.323 528.993 206.194 513.225C208.066 497.458 220.735 486 220.735 486C220.735 486 230.37 500.106 228.498 515.873Z" fill="#41B8AC"/>
<path opacity="0.1" d="M468 556C484.569 556 498 553.538 498 550.5C498 547.462 484.569 545 468 545C451.431 545 438 547.462 438 550.5C438 553.538 451.431 556 468 556Z" fill="black"/>
<path d="M472.412 535.065C467.453 541.416 468.02 550 468.02 550C468.02 550 476.628 548.286 481.588 541.935C486.547 535.584 485.98 527 485.98 527C485.98 527 477.372 528.714 472.412 535.065Z" fill="#D0CDE1"/>
<path d="M475.873 536.172C474.887 544.18 468.215 550 468.215 550C468.215 550 463.141 542.836 464.127 534.828C465.113 526.82 471.785 521 471.785 521C471.785 521 476.859 528.164 475.873 536.172Z" fill="#41B8AC"/>
<path opacity="0.1" d="M294.372 536.487C313.857 536.487 329.652 532.977 329.652 528.647C329.652 524.317 313.857 520.807 294.372 520.807C274.888 520.807 259.093 524.317 259.093 528.647C259.093 532.977 274.888 536.487 294.372 536.487Z" fill="black"/>
<path d="M294.372 528.647C304.764 528.647 313.188 520.223 313.188 509.831C313.188 499.439 304.764 491.015 294.372 491.015C283.981 491.015 275.556 499.439 275.556 509.831C275.556 520.223 283.981 528.647 294.372 528.647Z" fill="#41B8AC"/>
<path opacity="0.1" d="M394.723 536.487C414.207 536.487 430.003 532.977 430.003 528.647C430.003 524.317 414.207 520.807 394.723 520.807C375.239 520.807 359.443 524.317 359.443 528.647C359.443 532.977 375.239 536.487 394.723 536.487Z" fill="black"/>
<path d="M394.723 528.647C405.115 528.647 413.539 520.223 413.539 509.831C413.539 499.439 405.115 491.015 394.723 491.015C384.331 491.015 375.907 499.439 375.907 509.831C375.907 520.223 384.331 528.647 394.723 528.647Z" fill="#41B8AC"/>
<path d="M296.536 497.761H291.832V521.281H296.536V497.761Z" fill="#D0CDE1"/>
<path d="M392.966 497.761H388.262V521.281H392.966V497.761Z" fill="#D0CDE1"/>
<path d="M400.022 497.761H395.318V521.281H400.022V497.761Z" fill="#D0CDE1"/>
</svg>
