<svg width="559" height="415" viewBox="0 0 559 415" fill="none" xmlns="http://www.w3.org/2000/svg">
<path opacity="0.2" d="M132.257 224.324L104.552 216.92L97.1513 244.636L124.856 252.04L132.257 224.324Z" fill="#3F3D56"/>
<path d="M170.88 335.858C148.734 369.834 154.802 413.046 154.802 413.046C154.802 413.046 196.775 401.174 218.92 367.198C241.066 333.222 234.998 290.01 234.998 290.01C234.998 290.01 193.025 301.883 170.88 335.858Z" fill="#3F3D56"/>
<path d="M154.684 412.651C154.684 412.651 154.145 412.565 153.153 412.364C152.361 412.204 151.272 411.974 149.941 411.659C138.046 408.853 106.422 399.369 85.747 374.433C59.8697 343.209 60.9594 299.585 60.9594 299.585C60.9594 299.585 100.527 306.017 126.599 334.057C127.729 335.262 128.828 336.511 129.897 337.804C152.413 364.971 154.512 401.526 154.678 410.563C154.701 411.917 154.684 412.651 154.684 412.651Z" fill="#3F3D56"/>
<path d="M138.724 335.858C160.87 369.834 154.802 413.046 154.802 413.046C154.802 413.046 112.829 401.174 90.6837 367.198C68.5382 333.222 74.6061 290.01 74.6061 290.01C74.6061 290.01 116.579 301.883 138.724 335.858Z" stroke="#3F3D56" stroke-width="2" stroke-miterlimit="10"/>
<path opacity="0.1" d="M154.678 410.563C154.093 411.268 153.577 411.871 153.153 412.364C152.212 413.437 151.679 414 151.679 414C151.679 414 151.031 413.185 149.941 411.659C143.959 403.316 124.718 373.652 126.203 339.387C126.283 337.591 126.415 335.815 126.599 334.057C127.729 335.262 128.828 336.511 129.897 337.804C152.413 364.971 154.512 401.526 154.678 410.563Z" fill="black"/>
<path d="M187.514 341.865C185.764 382.388 155.696 414 155.696 414C155.696 414 128.465 379.911 130.216 339.388C131.966 298.865 162.034 267.253 162.034 267.253C162.034 267.253 189.265 301.342 187.514 341.865Z" fill="#3F3D56"/>
<path d="M19.1891 355.122C21.2591 355.122 22.9372 353.444 22.9372 351.373C22.9372 349.302 21.2591 347.623 19.1891 347.623C17.119 347.623 15.4409 349.302 15.4409 351.373C15.4409 353.444 17.119 355.122 19.1891 355.122Z" fill="#FF6584"/>
<path d="M93.4838 412.921H250.055" stroke="#3F3D56" stroke-width="2" stroke-miterlimit="10"/>
<path d="M0 412.921H73.9841" stroke="#3F3D56" stroke-width="2" stroke-miterlimit="10"/>
<path d="M37.5525 413.61V370.916" stroke="#3F3D56" stroke-width="2" stroke-miterlimit="10"/>
<path d="M37.5525 376.953C40.8855 376.953 43.5875 374.25 43.5875 370.916C43.5875 367.581 40.8855 364.878 37.5525 364.878C34.2194 364.878 31.5174 367.581 31.5174 370.916C31.5174 374.25 34.2194 376.953 37.5525 376.953Z" fill="#3F3D56"/>
<path d="M37.5525 397.229C37.5525 397.229 36.6903 378.679 19.0163 380.835L37.5525 397.229Z" fill="#3F3D56"/>
<path d="M158.722 257.819C165.148 257.819 170.358 252.607 170.358 246.178C170.358 239.749 165.148 234.537 158.722 234.537C152.295 234.537 147.086 239.749 147.086 246.178C147.086 252.607 152.295 257.819 158.722 257.819Z" fill="#3F3D56"/>
<path d="M122.227 254.644C126.9 254.644 130.689 250.854 130.689 246.178C130.689 241.502 126.9 237.712 122.227 237.712C117.553 237.712 113.764 241.502 113.764 246.178C113.764 250.854 117.553 254.644 122.227 254.644Z" stroke="#3F3D56" stroke-width="2" stroke-miterlimit="10"/>
<path d="M195.217 254.644C199.89 254.644 203.679 250.854 203.679 246.178C203.679 241.502 199.89 237.712 195.217 237.712C190.543 237.712 186.754 241.502 186.754 246.178C186.754 250.854 190.543 254.644 195.217 254.644Z" stroke="#3F3D56" stroke-width="2" stroke-miterlimit="10"/>
<path d="M155.696 412.852L162.306 268.906" stroke="#3F3D56" stroke-width="2" stroke-miterlimit="10"/>
<path d="M524.341 168.565C530.767 168.565 535.977 163.353 535.977 156.924C535.977 150.495 530.767 145.283 524.341 145.283C517.914 145.283 512.705 150.495 512.705 156.924C512.705 163.353 517.914 168.565 524.341 168.565Z" fill="#3F3D56"/>
<path d="M283.673 18.5062C288.346 18.5062 292.135 14.7157 292.135 10.04C292.135 5.36422 288.346 1.57376 283.673 1.57376C278.999 1.57376 275.21 5.36422 275.21 10.04C275.21 14.7157 278.999 18.5062 283.673 18.5062Z" stroke="#3F3D56" stroke-width="2" stroke-miterlimit="10"/>
<path d="M187.474 71.2926C192.148 71.2926 195.937 67.5021 195.937 62.8263C195.937 58.1506 192.148 54.3601 187.474 54.3601C182.8 54.3601 179.012 58.1506 179.012 62.8263C179.012 67.5021 182.8 71.2926 187.474 71.2926Z" stroke="#3F3D56" stroke-width="2" stroke-miterlimit="10"/>
<path d="M375.649 102.496C390.777 102.496 403.041 90.2266 403.041 75.0914C403.041 59.9563 390.777 47.6868 375.649 47.6868C360.52 47.6868 348.256 59.9563 348.256 75.0914C348.256 90.2266 360.52 102.496 375.649 102.496Z" fill="#FF6584"/>
<path d="M438.699 317.244L453.341 376.306L467.981 373.944L453.341 306.377L438.699 317.244Z" fill="#FBBEBE"/>
<path d="M458.536 372.526C458.536 372.526 450.198 375.346 451.297 377.244C452.396 379.141 452.396 390.954 448.618 395.206C444.839 399.458 435.393 412.688 446.256 413.161C457.119 413.633 467.982 406.546 467.982 406.546V394.261L469.871 405.601H471.76V392.844C471.76 392.844 476.483 384.811 473.649 380.086C470.815 375.361 468.968 371.244 465.405 371.649C461.842 372.054 458.536 372.526 458.536 372.526Z" fill="#2F2E41"/>
<path d="M381.08 367.329L378.718 380.086H395.249V367.329H381.08Z" fill="#FBBEBE"/>
<path d="M382.497 377.251C382.497 377.251 377.774 376.779 376.357 383.394C374.94 390.009 362.188 404.048 357.465 405.466C352.742 406.883 352.742 411.608 358.882 412.553C365.022 413.498 380.608 413.971 384.386 408.773C388.164 403.576 393.359 395.206 393.359 395.206L390.998 413.026H395.249C395.249 413.026 399.027 395.678 402.805 391.426C406.584 387.174 395.249 377.251 393.359 377.251H382.497Z" fill="#2F2E41"/>
<path d="M359.354 174.079C359.354 174.079 356.048 183.056 350.381 184.474C344.713 185.891 302.679 195.814 302.679 195.814C302.679 195.814 265.841 196.759 277.176 204.791C288.511 212.823 306.93 204.791 306.93 204.791C306.93 204.791 360.771 198.176 365.022 191.089C367.82 186.265 370.191 181.206 372.106 175.969L359.354 174.079Z" fill="#FBBEBE"/>
<path d="M377.302 134.389C377.302 134.389 350.381 178.331 353.687 179.276C356.993 180.221 387.692 190.144 389.109 186.364C390.526 182.584 390.526 165.101 390.526 165.101L377.302 134.389Z" fill="#2F2E41"/>
<path opacity="0.1" d="M377.302 134.389C377.302 134.389 350.381 178.331 353.687 179.276C356.993 180.221 387.692 190.144 389.109 186.364C390.526 182.584 390.526 165.101 390.526 165.101L377.302 134.389Z" fill="black"/>
<path d="M447.201 123.995L508.126 155.179C508.126 155.179 542.604 164.156 535.047 171.244C527.49 178.331 502.931 165.101 502.931 165.101L435.393 134.389L447.201 123.995Z" fill="#FBBEBE"/>
<path d="M369.273 99.4248C369.273 99.4248 381.08 117.38 380.135 121.632C380.135 121.632 381.08 124.467 379.663 126.357C378.246 128.247 378.718 139.587 378.718 139.587L383.441 146.202L389.581 125.885L392.415 104.15C392.415 104.15 386.039 95.4087 386.984 91.1562C387.928 86.9038 369.273 99.4248 369.273 99.4248Z" fill="#FBBEBE"/>
<path d="M406.584 201.484C406.584 201.484 380.135 272.358 380.135 303.542C380.135 334.727 370.217 370.164 377.774 373.471C385.33 376.779 423.586 377.251 424.531 373.471C425.475 369.691 419.808 216.131 416.974 209.988C414.14 203.846 406.584 201.484 406.584 201.484Z" fill="#2F2E41"/>
<path opacity="0.1" d="M406.584 201.484C406.584 201.484 380.135 272.358 380.135 303.542C380.135 334.727 370.217 370.164 377.774 373.471C385.33 376.779 423.586 377.251 424.531 373.471C425.475 369.691 419.808 216.131 416.974 209.988C414.14 203.846 406.584 201.484 406.584 201.484Z" fill="black"/>
<path d="M375.412 102.26C385.063 102.26 392.887 94.4327 392.887 84.7775C392.887 75.1224 385.063 67.2953 375.412 67.2953C365.761 67.2953 357.938 75.1224 357.938 84.7775C357.938 94.4327 365.761 102.26 375.412 102.26Z" fill="#FBBEBE"/>
<path d="M380.608 137.697L379.343 127.034C379.343 127.034 375.412 132.499 375.412 136.752C375.412 141.004 373.051 156.124 382.969 165.574C392.887 175.024 394.776 176.914 395.249 178.804C395.721 180.694 398.082 180.694 398.082 180.694L411.779 235.976C411.779 235.976 416.029 382.921 422.642 384.811C429.254 386.701 449.562 384.811 450.979 382.449C452.396 380.086 448.618 317.244 448.618 317.244C448.618 317.244 459.008 372.999 462.786 372.999C466.565 372.999 468.926 364.966 467.982 364.494C467.037 364.021 461.37 327.639 459.008 316.299C456.647 304.96 457.591 209.043 457.591 209.043C457.591 209.043 465.148 196.759 439.172 172.661C439.172 172.661 422.642 124.467 421.697 124.467C420.752 124.467 402.333 98.4799 402.333 98.4799C402.333 98.4799 391.943 98.4799 390.053 104.622C388.164 110.765 380.608 137.697 380.608 137.697Z" fill="#2F2E41"/>
<path d="M396.666 102.26L402.333 98.4798C402.333 98.4798 425.948 112.655 442.478 113.6C459.008 114.545 458.536 123.994 451.924 130.609C445.312 137.224 419.336 159.904 418.391 154.234C417.446 148.564 396.666 102.26 396.666 102.26Z" fill="#2F2E41"/>
<path d="M375.649 78.8714C386.082 78.8714 394.54 73.7943 394.54 67.5315C394.54 61.2687 386.082 56.1917 375.649 56.1917C365.215 56.1917 356.757 61.2687 356.757 67.5315C356.757 73.7943 365.215 78.8714 375.649 78.8714Z" fill="#FF6584"/>
<path d="M377.538 59.0266C383.798 59.0266 388.873 53.9496 388.873 47.6868C388.873 41.424 383.798 36.3469 377.538 36.3469C371.278 36.3469 366.203 41.424 366.203 47.6868C366.203 53.9496 371.278 59.0266 377.538 59.0266Z" fill="#FF6584"/>
<path d="M362.424 41.5444C362.424 38.7414 363.462 36.0377 365.337 33.955C367.212 31.8723 369.792 30.5581 372.579 30.2658C372.186 30.2251 371.792 30.2046 371.398 30.2045C368.392 30.2045 365.509 31.3992 363.383 33.5259C361.257 35.6525 360.063 38.5368 360.063 41.5444C360.063 44.5519 361.257 47.4362 363.383 49.5628C365.509 51.6895 368.392 52.8842 371.398 52.8842C371.792 52.8841 372.186 52.8636 372.579 52.8229C369.792 52.5307 367.212 51.2164 365.337 49.1337C363.462 47.051 362.425 44.3473 362.424 41.5444Z" fill="#FF6584"/>
<path d="M98.969 140.932C116.173 140.932 130.12 126.98 130.12 109.768C130.12 92.5566 116.173 78.6039 98.969 78.6039C81.7649 78.6039 67.8182 92.5566 67.8182 109.768C67.8182 126.98 81.7649 140.932 98.969 140.932Z" fill="#3F3D56"/>
<path d="M284.179 413.174H508.999" stroke="#3F3D56" stroke-width="2" stroke-miterlimit="10"/>
<path d="M552.009 100.806L524.779 128.047L513.335 116.597C512.971 116.234 512.54 115.946 512.065 115.749C511.591 115.552 511.082 115.451 510.568 115.451C510.054 115.451 509.546 115.552 509.071 115.749C508.596 115.946 508.165 116.234 507.802 116.597L507.391 115.982C505.863 117.511 506.274 120.604 507.802 122.133L522.651 136.988C523.211 137.548 523.97 137.863 524.761 137.863C525.553 137.863 526.312 137.549 526.872 136.989L557.539 106.341C559.068 104.813 559.622 102.011 558.094 100.483C556.567 98.9547 553.537 99.2777 552.009 100.806Z" fill="#3F3D56"/>
<path opacity="0.1" d="M552.009 100.806L524.779 128.047L513.335 116.597C512.971 116.234 512.54 115.946 512.065 115.749C511.591 115.552 511.082 115.451 510.568 115.451C510.054 115.451 509.546 115.552 509.071 115.749C508.596 115.946 508.165 116.234 507.802 116.597L507.391 115.982C505.863 117.511 506.274 120.604 507.802 122.133L522.651 136.988C523.211 137.548 523.97 137.863 524.761 137.863C525.553 137.863 526.312 137.549 526.872 136.989L557.539 106.341C559.068 104.813 559.622 102.011 558.094 100.483C556.567 98.9547 553.537 99.2777 552.009 100.806Z" fill="black"/>
<path d="M552.009 99.598L524.779 126.839L513.335 115.39C512.971 115.026 512.54 114.738 512.065 114.541C511.591 114.345 511.082 114.243 510.568 114.243C510.054 114.243 509.546 114.345 509.071 114.541C508.596 114.738 508.165 115.026 507.802 115.39C507.438 115.753 507.15 116.185 506.954 116.659C506.757 117.134 506.656 117.643 506.656 118.157C506.656 118.671 506.757 119.18 506.954 119.655C507.15 120.13 507.438 120.561 507.802 120.925L522.651 135.781C523.211 136.34 523.97 136.655 524.761 136.655C525.553 136.655 526.312 136.341 526.872 135.782L557.539 105.133C557.902 104.77 558.191 104.339 558.388 103.864C558.585 103.389 558.686 102.88 558.686 102.366C558.686 101.852 558.585 101.343 558.388 100.868C558.192 100.393 557.904 99.9615 557.54 99.598C556.807 98.8642 555.812 98.4519 554.775 98.452C553.737 98.452 552.743 98.8642 552.009 99.598Z" fill="#3F3D56"/>
</svg>
