<svg width="127" height="116" viewBox="0 0 127 116" fill="none" xmlns="http://www.w3.org/2000/svg">
<path d="M25 53C38.8071 53 50 41.8071 50 28C50 14.1929 38.8071 3 25 3C11.1929 3 0 14.1929 0 28C0 41.8071 11.1929 53 25 53Z" fill="#FF6584"/>
<path d="M104.854 78.4731C95.2632 106.13 75.3703 110.048 54.9634 102.971C54.4894 102.806 54.0195 102.637 53.5537 102.464C52.615 102.116 51.6939 101.748 50.7906 101.362C32.8221 93.6787 22.0318 78.5645 30.9515 52.8439C40.1823 26.2262 86.0634 4.50672 89.4921 2.91334C89.4943 2.91412 89.4943 2.91412 89.4973 2.91265C89.6277 2.85181 89.694 2.82179 89.694 2.82179C89.694 2.82179 114.445 50.8186 104.854 78.4731Z" fill="#D0CDE1"/>
<path d="M90.2207 65.4891C90.235 94.7616 72.7288 104.99 51.1297 105C50.6279 105 50.1286 104.995 49.6318 104.984C48.6307 104.963 47.6401 104.918 46.6599 104.849C27.1653 103.487 12.0133 92.7502 12 65.5268C11.9862 37.354 48.2011 1.78288 50.9171 -0.847246C50.9195 -0.847246 50.9195 -0.847246 50.9219 -0.849636C51.025 -0.949878 51.0778 -1 51.0778 -1C51.0778 -1 90.2064 36.2189 90.2207 65.4891Z" fill="#41B8AC"/>
<path d="M49.7282 100.538L64.0702 80.6667L49.6932 102.719L49.6558 105C48.6514 104.979 47.6575 104.934 46.6741 104.865L48.2059 75.5758L48.1938 75.3491L48.2202 75.3062L48.3658 72.5385L33.931 50.4451L48.4081 70.4651L48.4445 71.0521L49.6018 48.9226L37.2427 26.091L49.7516 45.0335L50.9454 -0.847314L50.9501 -1L50.9502 -0.849704L50.7656 35.3321L63.0487 20.9824L50.7142 38.4481L50.3988 58.2629L61.8703 39.242L50.3544 61.176L50.1792 72.194L66.8276 45.7172L50.116 76.0377L49.7282 100.538Z" fill="#3F3D56"/>
</svg>
