<svg width="738" height="749" viewBox="0 0 738 749" fill="none" xmlns="http://www.w3.org/2000/svg">
<path d="M708.382 299.814C710.549 353.215 626.132 451.18 462.605 581.891C459.258 584.564 455.864 587.156 452.422 589.665C367.411 651.58 253.199 662.592 165.407 585.066C152.117 573.35 140.144 560.221 129.698 545.911C128.212 543.882 126.764 541.833 125.354 539.763C121.284 533.778 117.517 527.669 114.052 521.435C71.8141 445.381 75.9941 352.943 131.791 289.758C145.651 274.063 160.739 265.359 176.895 261.335L176.9 261.33C206.352 253.993 239.358 262.218 274.98 272.026C282.763 274.167 290.673 276.39 298.7 278.537C331.798 287.391 366.837 295.051 403.15 291.272C408.926 290.68 414.668 289.792 420.353 288.611C423.227 288.02 426.105 287.344 428.989 286.583C615.623 237.388 706.184 245.859 708.382 299.814Z" fill="#3F3D56"/>
</svg>
