<svg width="615" height="563" viewBox="0 0 615 563" fill="none" xmlns="http://www.w3.org/2000/svg">
<path d="M588.927 170.783C590.821 217.441 517.063 303.034 374.187 417.239C371.263 419.575 368.297 421.839 365.29 424.032C291.014 478.128 191.225 487.75 114.52 420.014C102.908 409.777 92.4462 398.306 83.3197 385.803C82.0216 384.03 80.7564 382.24 79.5239 380.432C75.9681 375.203 72.6767 369.865 69.6497 364.418C32.7454 297.968 36.3975 217.204 85.1482 161.998C97.2581 148.284 110.441 140.68 124.557 137.164L124.561 137.159C150.294 130.749 179.132 137.935 210.256 146.505C217.056 148.375 223.967 150.318 230.98 152.193C259.898 159.929 290.512 166.621 322.24 163.32C327.287 162.803 332.304 162.027 337.271 160.995C339.781 160.479 342.296 159.888 344.816 159.223C507.882 116.241 587.007 123.642 588.927 170.783Z" fill="#3F3D56"/>
</svg>
